<svg width="36" height="36" viewBox="0 0 36 36" fill="none" xmlns="http://www.w3.org/2000/svg">
<g filter="url(#filter0_d_182_207)">
<path d="M20.9542 20.5492C20.3401 20.5558 19.8469 21.0491 19.8515 21.6524C19.8462 22.2561 20.3398 22.7499 20.9539 22.7555C21.5675 22.7482 22.0597 22.2552 22.0553 21.6524C22.0597 21.0496 21.5675 20.5565 20.9542 20.5492ZM17.5652 12.6918C17.488 12.6133 17.3959 12.5513 17.2945 12.5096C17.193 12.4678 17.0844 12.447 16.9749 12.4486H14.4969C14.3978 12.3112 14.2684 12.1991 14.1189 12.1213C13.9695 12.0434 13.8041 12.0019 13.636 12C13.1085 11.999 12.6571 12.3808 12.5689 12.9032C12.5396 13.0664 12.5458 13.2341 12.587 13.3946C12.6282 13.5551 12.7034 13.7046 12.8075 13.8328C12.9109 13.9539 13.0395 14.0504 13.1841 14.1154C13.3287 14.1803 13.4857 14.2121 13.6439 14.2086C13.8214 14.2096 13.9962 14.1645 14.1514 14.0776C14.3067 13.9907 14.4373 13.8649 14.5307 13.7123H16.6427C16.7362 13.7123 16.8245 13.7522 16.8941 13.8196L19.0063 15.983C19.074 16.0558 19.1681 16.0979 19.2672 16.0996H20.5226C20.6209 16.2359 20.7489 16.3475 20.8968 16.4256C21.0446 16.5038 21.2083 16.5465 21.375 16.5503H21.383C21.913 16.545 22.3629 16.1587 22.4501 15.6339C22.4792 15.4686 22.4731 15.2989 22.4323 15.1361C22.3914 14.9733 22.3167 14.8212 22.2132 14.6899C22.1102 14.5673 21.9816 14.4693 21.8367 14.4029C21.6918 14.3366 21.5341 14.3035 21.375 14.3061C21.1987 14.3033 21.0245 14.3464 20.8693 14.4311C20.7141 14.5159 20.583 14.6395 20.4885 14.7901H19.8179C19.726 14.7916 19.6371 14.7559 19.5713 14.6911L17.8075 12.9257L17.5652 12.6918ZM22.7784 17.6545C22.3609 17.6403 21.9777 17.8825 21.8134 18.2646H18.6323C18.4133 18.2615 18.2021 18.3463 18.0449 18.5005L15.6099 20.9621C15.5444 21.03 15.454 21.0686 15.3594 21.0691H13.9759C13.8646 20.8728 13.6838 20.7264 13.4699 20.6597C13.3502 20.6088 13.2221 20.5813 13.0923 20.5788C12.6421 20.5812 12.2379 20.8535 12.0694 21.2686C11.9694 21.537 11.9779 21.8344 12.0931 22.0965C12.2063 22.3629 12.4167 22.575 12.6805 22.6886C12.8044 22.7324 12.9347 22.7549 13.0659 22.7551C13.2362 22.7612 13.4052 22.7237 13.5573 22.6459C13.7093 22.5681 13.8393 22.4526 13.9353 22.3102H15.7042C15.8144 22.3105 15.9235 22.2887 16.0253 22.246C16.1271 22.2033 16.2194 22.1405 16.297 22.0613L18.6807 19.5998C18.7529 19.5185 18.8536 19.4689 18.9614 19.4614H21.9761L22.0155 19.4756C22.1123 19.5802 22.2293 19.6637 22.3591 19.7211C22.4889 19.7785 22.629 19.8086 22.7707 19.8095C23.3843 19.8095 23.8458 19.3504 23.8458 18.7286C23.8479 18.5894 23.8226 18.4513 23.7713 18.3222C23.72 18.1931 23.6437 18.0756 23.547 17.9767C23.3496 17.7748 23.0816 17.6595 22.8009 17.6555L22.7784 17.6545ZM15.4344 16.3166H13.9386C13.8463 16.1715 13.7181 16.0533 13.5668 15.9735C13.4154 15.8938 13.2461 15.8554 13.0756 15.862C12.4608 15.8617 12 16.3267 12 16.9534C12 17.5785 12.4649 18.0529 13.0872 18.0529C13.2609 18.0555 13.4324 18.0128 13.5852 17.929C13.7379 17.8453 13.8668 17.7232 13.9594 17.5746H15.4148C15.5066 17.725 15.635 17.8493 15.7876 17.9355C15.9403 18.0217 16.1122 18.0671 16.2871 18.0673H16.2962C16.9103 18.0673 17.3716 17.5929 17.3716 16.9664C17.3885 16.3804 16.9277 15.8918 16.3422 15.8747H16.2844C16.1181 15.8743 15.9542 15.9142 15.8063 15.9911C15.6584 16.0679 15.5309 16.1797 15.4344 16.3166Z" fill="#B8D9FF"/>
<rect x="7" y="7" width="22" height="22" rx="2" stroke="#B8D9FF" stroke-width="2"/>
</g>
<defs>
<filter id="filter0_d_182_207" x="-3.02637" y="-2.75" width="41.5" height="41.5" filterUnits="userSpaceOnUse" color-interpolation-filters="sRGB">
<feFlood flood-opacity="0" result="BackgroundImageFix"/>
<feColorMatrix in="SourceAlpha" type="matrix" values="0 0 0 0 0 0 0 0 0 0 0 0 0 0 0 0 0 0 127 0" result="hardAlpha"/>
<feOffset/>
<feGaussianBlur stdDeviation="2.875"/>
<feColorMatrix type="matrix" values="0 0 0 0 0 0 0 0 0 0.460123 0 0 0 0 1 0 0 0 1 0"/>
<feBlend mode="normal" in2="BackgroundImageFix" result="effect1_dropShadow_182_207"/>
<feBlend mode="normal" in="SourceGraphic" in2="effect1_dropShadow_182_207" result="shape"/>
</filter>
</defs>
</svg>
