<svg width="39" height="36" viewBox="0 0 39 36" fill="none" xmlns="http://www.w3.org/2000/svg">
<g clip-path="url(#clip0_144_19266)" filter="url(#filter0_d_144_19266)">
<path d="M16.9021 10.5293C15.7901 10.5293 14.8855 11.4522 14.8855 12.5865V15.0591C14.8854 16.1934 15.7901 17.1162 16.9021 17.1162C18.0142 17.1162 18.9189 16.1934 18.9189 15.0591V12.5865C18.9188 11.4522 18.0142 10.5293 16.9021 10.5293ZM17.3758 15.0591C17.3758 15.3255 17.1633 15.5422 16.9021 15.5422C16.6409 15.5422 16.4285 15.3255 16.4285 15.0591V12.5865C16.4285 12.3201 16.6409 12.1033 16.9021 12.1033C17.1633 12.1033 17.3758 12.3201 17.3758 12.5865V15.0591ZM12.3147 12.9991C12.0727 12.909 11.8224 12.8159 11.6918 12.7154C11.6368 12.6732 11.6289 12.6621 11.6289 12.5865C11.6289 12.3201 11.8414 12.1033 12.1026 12.1033C12.3168 12.1033 12.5049 12.2502 12.5602 12.4605C12.6706 12.8804 13.0934 13.1295 13.5052 13.0169C13.9167 12.9042 14.161 12.4727 14.0506 12.053C13.8148 11.1558 13.0138 10.5293 12.1026 10.5293C10.9906 10.5293 10.0859 11.4522 10.0859 12.5865C10.0859 13.8452 11.1501 14.2412 11.786 14.4778C12.5381 14.7577 12.5764 14.8457 12.5764 15.0591C12.5764 15.3255 12.3639 15.5422 12.1027 15.5422C11.8836 15.5422 11.6894 15.3847 11.6409 15.1676C11.5461 14.7438 11.1324 14.4785 10.7172 14.5752C10.3017 14.6719 10.0417 15.0937 10.1364 15.5175C10.3468 16.4587 11.1553 17.1162 12.1027 17.1162C13.2146 17.1162 14.1193 16.1934 14.1193 15.059C14.1194 13.6706 12.9897 13.2502 12.3147 12.9991ZM18.8955 23.8944H11.4882C11.0622 23.8944 10.7167 24.2467 10.7167 24.6814C10.7167 25.116 11.0621 25.4684 11.4882 25.4684H18.8955C19.3215 25.4684 19.667 25.116 19.667 24.6814C19.667 24.2467 19.3215 23.8944 18.8955 23.8944Z" fill="white"/>
<path d="M31.4876 12.677C30.9374 12.2448 30.2553 12.0569 29.5663 12.1481C28.8775 12.2393 28.2648 12.5986 27.8411 13.1599L27.4126 13.7274V6.787C27.4126 6.3524 27.0672 6 26.641 6H7.27152C6.84542 6.00005 6.5 6.3524 6.5 6.787V29.213C6.5 29.6476 6.84542 30 7.27152 30H26.641C27.0671 30 27.4126 29.6477 27.4126 29.213V22.4209L31.9611 16.3969V16.3968C32.8359 15.2381 32.6235 13.5694 31.4876 12.677ZM25.8696 28.426H8.043V7.57401H25.8695V15.7711L23.1922 19.317C23.1567 18.916 22.8266 18.6015 22.4242 18.6015H11.4883C11.0623 18.6015 10.7168 18.9539 10.7168 19.3885C10.7168 19.8232 11.0622 20.1755 11.4883 20.1755H22.4242C22.4682 20.1755 22.511 20.1709 22.5529 20.1637L21.7338 21.2486H11.4883C11.0623 21.2486 10.7168 21.6009 10.7168 22.0356C10.7168 22.4702 11.0622 22.8226 11.4883 22.8226H21.4068L21.4901 24.9289C21.4946 25.044 21.5239 25.1566 21.5758 25.2588C21.6276 25.3611 21.7009 25.4504 21.7903 25.5207C21.8797 25.5909 21.9831 25.6403 22.0933 25.6653C22.2034 25.6904 22.3176 25.6905 22.4278 25.6656L25.2106 25.0371C25.3873 24.9971 25.5446 24.8951 25.655 24.7489L25.8697 24.4646V28.426H25.8696ZM24.6034 23.5619L22.9947 23.9253L22.9283 22.2459L27.9114 15.6462L29.5828 16.967L24.6034 23.5619ZM30.7386 15.4364V15.4364L30.5244 15.7201L28.8529 14.3993L29.0635 14.1204C29.148 14.008 29.2535 13.9137 29.3739 13.8431C29.4943 13.7725 29.6272 13.7269 29.765 13.709C29.9027 13.6904 30.0426 13.6998 30.1767 13.7367C30.3108 13.7736 30.4364 13.8373 30.5462 13.9241C30.6564 14.0102 30.7488 14.1178 30.8181 14.2407C30.8873 14.3635 30.932 14.4991 30.9495 14.6396C30.9677 14.7801 30.9585 14.9228 30.9223 15.0596C30.8861 15.1963 30.8237 15.3244 30.7386 15.4364Z" fill="white"/>
<path d="M22.0218 12.9991C21.7798 12.909 21.5296 12.8159 21.3989 12.7154C21.3432 12.6725 21.3361 12.6625 21.3361 12.5865C21.3361 12.3201 21.5486 12.1033 21.8098 12.1033C22.0239 12.1033 22.2121 12.2502 22.2674 12.4605C22.3778 12.8804 22.8012 13.1294 23.2123 13.0169C23.6239 12.9042 23.8681 12.4727 23.7577 12.053C23.5219 11.1558 22.7209 10.5293 21.8097 10.5293C20.6977 10.5293 19.793 11.4522 19.793 12.5865C19.7931 13.8452 20.8572 14.2412 21.493 14.4778C22.2452 14.7577 22.2834 14.8457 22.2834 15.0591C22.2834 15.3255 22.0709 15.5422 21.8097 15.5422C21.5906 15.5422 21.3964 15.3847 21.3479 15.1676C21.2531 14.7438 20.8394 14.4785 20.4242 14.5752C20.0087 14.6719 19.7487 15.0937 19.8434 15.5175C20.0538 16.4587 20.8624 17.1162 21.8097 17.1162C22.9217 17.1162 23.8264 16.1934 23.8264 15.059C23.8266 13.6706 22.6968 13.2502 22.0218 12.9991Z" fill="white"/>
</g>
<defs>
<filter id="filter0_d_144_19266" x="-3.25" y="-2.75" width="41.5" height="41.5" filterUnits="userSpaceOnUse" color-interpolation-filters="sRGB">
<feFlood flood-opacity="0" result="BackgroundImageFix"/>
<feColorMatrix in="SourceAlpha" type="matrix" values="0 0 0 0 0 0 0 0 0 0 0 0 0 0 0 0 0 0 127 0" result="hardAlpha"/>
<feOffset/>
<feGaussianBlur stdDeviation="2.875"/>
<feColorMatrix type="matrix" values="0 0 0 0 0 0 0 0 0 0.460123 0 0 0 0 1 0 0 0 1 0"/>
<feBlend mode="normal" in2="BackgroundImageFix" result="effect1_dropShadow_144_19266"/>
<feBlend mode="normal" in="SourceGraphic" in2="effect1_dropShadow_144_19266" result="shape"/>
</filter>
<clipPath id="clip0_144_19266">
<rect width="30" height="30" fill="white" transform="translate(2.5 3)"/>
</clipPath>
</defs>
</svg>
