<svg width="39" height="39" viewBox="0 0 39 39" fill="none" xmlns="http://www.w3.org/2000/svg">
<g filter="url(#filter0_d_182_246)">
<path d="M11.929 29.4353L9.50977 25.4376L10.0082 25.1354L12.4275 29.1331L11.929 29.4353ZM14.3411 29.5786L9.4668 20.1809L9.98817 19.9102L14.8983 29.3766L14.3411 29.5786ZM17.0339 29.5786L9.49258 14.9915L10.014 14.7208L17.6054 29.411L17.0339 29.5786ZM19.7811 29.5786L9.49258 9.1862L10.0727 9.04297L20.3369 29.3823L19.7811 29.5786ZM22.2605 29.4353L11.9175 9.40106L12.4389 9.13034L22.7819 29.1632L22.2605 29.4353ZM25.4117 29.4353L14.3798 9.40822L14.8925 9.12175L25.9216 29.1546L25.4117 29.4353ZM28.8279 29.4353L17.6441 9.40822L18.1569 9.12175L29.3464 29.1546L28.8279 29.4353ZM28.9897 24.0869L20.5747 9.41251L21.0831 9.12605L29.4982 23.8005L28.9897 24.0869ZM28.9897 18.4521L23.6471 9.41395L24.1512 9.11602L29.4953 18.1527L28.9897 18.4521ZM28.9596 13.1968L26.5017 9.42541L26.9916 9.10456L29.4509 12.8759L28.9596 13.1968Z" fill="#B8D9FF"/>
<path d="M29.502 30H9.50195V9H29.502V30ZM11.502 28H27.502V11H11.502V28Z" fill="#B8D9FF"/>
<path d="M28.3811 28.4163V32.5371H32.502V28.4163H28.3811ZM31.3346 31.3698H29.5484V29.5836H31.336L31.3346 31.3698ZM28.3811 6V10.1209H32.502V6H28.3811ZM31.3346 8.9535H29.5484V7.16736H31.336L31.3346 8.9535ZM6.50195 28.4163V32.5371H10.6228V28.4163H6.50195ZM9.45546 31.3698H7.66932V29.5836H9.45546V31.3698ZM6.50195 6V10.1209H10.6228V6H6.50195ZM9.45546 8.9535H7.66932V7.16736H9.45546V8.9535Z" fill="#B8D9FF"/>
</g>
<defs>
<filter id="filter0_d_182_246" x="-1.24805" y="-1.75" width="41.5" height="41.5" filterUnits="userSpaceOnUse" color-interpolation-filters="sRGB">
<feFlood flood-opacity="0" result="BackgroundImageFix"/>
<feColorMatrix in="SourceAlpha" type="matrix" values="0 0 0 0 0 0 0 0 0 0 0 0 0 0 0 0 0 0 127 0" result="hardAlpha"/>
<feOffset/>
<feGaussianBlur stdDeviation="2.875"/>
<feColorMatrix type="matrix" values="0 0 0 0 0 0 0 0 0 0.460123 0 0 0 0 1 0 0 0 1 0"/>
<feBlend mode="normal" in2="BackgroundImageFix" result="effect1_dropShadow_182_246"/>
<feBlend mode="normal" in="SourceGraphic" in2="effect1_dropShadow_182_246" result="shape"/>
</filter>
</defs>
</svg>
