{
  "accessors": [
    {
      "bufferView": 2,
      "componentType": 5126,
      "count": 1054,
      "max": [
        -1.2319194078445435,
        6.11613130569458,
        6.212424278259277
      ],
      "min": [
        -12.103743553161621,
        -13.212150573730469,
        -6.200631618499756
      ],
      "type": "VEC3"
    },
    {
      "bufferView": 2,
      "byteOffset": 12648,
      "componentType": 5126,
      "count": 1054,
      "max": [
        0.9895309805870056,
        0.9984684586524963,
        0.9993759393692017
      ],
      "min": [
        -0.9833495616912842,
        -0.9854902029037476,
        -0.9989532828330994
      ],
      "type": "VEC3"
    },
    {
      "bufferView": 3,
      "componentType": 5126,
      "count": 1054,
      "max": [
        1.0,
        1.0,
        1.0,
        1.0
      ],
      "min": [
        1.0,
        1.0,
        1.0,
        1.0
      ],
      "type": "VEC4"
    },
    {
      "bufferView": 1,
      "componentType": 5126,
      "count": 1054,
      "max": [
        0.8151161074638367,
        0.9945891499519348
      ],
      "min": [
        0.036066439002752304,
        0.00531621603295207
      ],
      "type": "VEC2"
    },
    {
      "bufferView": 0,
      "componentType": 5125,
      "count": 3147,
      "type": "SCALAR"
    },
    {
      "bufferView": 2,
      "byteOffset": 25296,
      "componentType": 5126,
      "count": 34441,
      "max": [
        48.826629638671875,
        11.383810997009277,
        34.29124450683594
      ],
      "min": [
        -34.34075164794922,
        -49.24269485473633,
        -34.299652099609375
      ],
      "type": "VEC3"
    },
    {
      "bufferView": 2,
      "byteOffset": 438588,
      "componentType": 5126,
      "count": 34441,
      "max": [
        0.9999340772628784,
        0.9998778104782104,
        1.0
      ],
      "min": [
        -0.9999389052391052,
        -0.9996980428695679,
        -1.0
      ],
      "type": "VEC3"
    },
    {
      "bufferView": 3,
      "byteOffset": 16864,
      "componentType": 5126,
      "count": 34441,
      "max": [
        1.0,
        1.0,
        1.0,
        1.0
      ],
      "min": [
        0.9921568632125854,
        0.9921568632125854,
        0.9921568632125854,
        0.9921568632125854
      ],
      "type": "VEC4"
    },
    {
      "bufferView": 1,
      "byteOffset": 8432,
      "componentType": 5126,
      "count": 34441,
      "max": [
        0.9952747225761414,
        0.9854006171226501
      ],
      "min": [
        0.004725250881165266,
        0.00472523458302021
      ],
      "type": "VEC2"
    },
    {
      "bufferView": 0,
      "byteOffset": 12588,
      "componentType": 5125,
      "count": 85923,
      "type": "SCALAR"
    }
  ],
  "asset": {
    "extras": {
      "author": "karmy2k (https://sketchfab.com/karmy2k)",
      "license": "CC-BY-4.0 (http://creativecommons.org/licenses/by/4.0/)",
      "source": "https://sketchfab.com/3d-models/mh-6j-little-bird-transport-4d749552aa0342829f16e340738b51a9",
      "title": "MH-6J Little Bird Transport"
    },
    "generator": "Sketchfab-16.31.0",
    "version": "2.0"
  },
  "bufferViews": [
    {
      "buffer": 0,
      "byteLength": 356280,
      "name": "floatBufferViews",
      "target": 34963
    },
    {
      "buffer": 0,
      "byteLength": 283960,
      "byteOffset": 356280,
      "byteStride": 8,
      "name": "floatBufferViews",
      "target": 34962
    },
    {
      "buffer": 0,
      "byteLength": 851880,
      "byteOffset": 640240,
      "byteStride": 12,
      "name": "floatBufferViews",
      "target": 34962
    },
    {
      "buffer": 0,
      "byteLength": 567920,
      "byteOffset": 1492120,
      "byteStride": 16,
      "name": "floatBufferViews",
      "target": 34962
    }
  ],
  "buffers": [
    {
      "byteLength": 2060040,
      "uri": "scene.bin"
    }
  ],
  "extensionsUsed": [
    "KHR_materials_transmission"
  ],
  "images": [
    {
      "uri": "textures/Rockets_baseColor.png"
    }
  ],
  "materials": [
    {
      "alphaMode": "BLEND",
      "doubleSided": true,
      "extensions": {
        "KHR_materials_transmission": {
          "transmissionFactor": 0.9339999999999999
        }
      },
      "name": "Glass",
      "pbrMetallicRoughness": {
        "baseColorFactor": [
          0.206,
          0.206,
          0.206,
          0.25
        ],
        "metallicFactor": 0.0,
        "roughnessFactor": 0.0
      }
    },
    {
      "doubleSided": true,
      "name": "Rockets",
      "pbrMetallicRoughness": {
        "baseColorTexture": {
          "index": 0
        },
        "metallicFactor": 0.0
      }
    }
  ],
  "meshes": [
    {
      "name": "MH-6 Littel Bird Main_Glass_0",
      "primitives": [
        {
          "attributes": {
            "COLOR_0": 2,
            "NORMAL": 1,
            "POSITION": 0,
            "TEXCOORD_0": 3
          },
          "indices": 4,
          "material": 0,
          "mode": 4
        }
      ]
    },
    {
      "name": "MH-6 Littel Bird Main_Rockets_0",
      "primitives": [
        {
          "attributes": {
            "COLOR_0": 7,
            "NORMAL": 6,
            "POSITION": 5,
            "TEXCOORD_0": 8
          },
          "indices": 9,
          "material": 1,
          "mode": 4
        }
      ]
    }
  ],
  "nodes": [
    {
      "children": [
        1
      ],
      "matrix": [
        1.0,
        0.0,
        0.0,
        0.0,
        0.0,
        2.220446049250313e-16,
        -1.0,
        0.0,
        0.0,
        1.0,
        2.220446049250313e-16,
        0.0,
        0.0,
        0.0,
        0.0,
        1.0
      ],
      "name": "Sketchfab_model"
    },
    {
      "children": [
        2
      ],
      "matrix": [
        0.009999999776482582,
        0.0,
        0.0,
        0.0,
        0.0,
        0.0,
        0.009999999776482582,
        0.0,
        0.0,
        -0.009999999776482582,
        0.0,
        0.0,
        0.0,
        0.0,
        0.0,
        1.0
      ],
      "name": "5444431f07a746fca27938a656d9d980.fbx"
    },
    {
      "children": [
        3
      ],
      "name": "RootNode"
    },
    {
      "children": [
        4,
        5
      ],
      "matrix": [
        -1.2123568642417557e-06,
        -7.441393365894047,
        -10.470436273198155,
        0.0,
        -7.360496692740203e-07,
        -10.470436273198144,
        7.4413933658941245,
        0.0,
        -12.845402717590254,
        1.3022857945232041e-06,
        5.618095700419981e-07,
        0.0,
        0.26544344425201416,
        105.46220397949219,
        239.7620849609375,
        1.0
      ],
      "name": "MH-6 Littel Bird Main"
    },
    {
      "mesh": 0,
      "name": "MH-6 Littel Bird Main_Glass_0"
    },
    {
      "mesh": 1,
      "name": "MH-6 Littel Bird Main_Rockets_0"
    }
  ],
  "samplers": [
    {
      "magFilter": 9729,
      "minFilter": 9987,
      "wrapS": 10497,
      "wrapT": 10497
    }
  ],
  "scene": 0,
  "scenes": [
    {
      "name": "Sketchfab_Scene",
      "nodes": [
        0
      ]
    }
  ],
  "textures": [
    {
      "sampler": 0,
      "source": 0
    }
  ]
}
